<svg width="1200" height="640" viewBox="0 0 1200 640" fill="none" xmlns="http://www.w3.org/2000/svg">
  <rect width="1200" height="640" rx="32" fill="#08131A"/>
  <rect x="52" y="66" width="250" height="160" rx="26" fill="#102833" stroke="#27414C"/>
  <rect x="474" y="58" width="250" height="176" rx="26" fill="#0F2731" stroke="#315863"/>
  <rect x="900" y="72" width="250" height="148" rx="26" fill="#0F222B" stroke="#355865"/>
  <rect x="250" y="380" width="270" height="176" rx="26" fill="#102A35" stroke="#355865"/>
  <rect x="672" y="372" width="278" height="190" rx="26" fill="#102A35" stroke="#355865"/>
  <path d="M302 146H474" stroke="#89FFE1" stroke-width="5" stroke-linecap="round"/>
  <path d="M724 146H900" stroke="#FFB86C" stroke-width="5" stroke-linecap="round"/>
  <path d="M599 234V380" stroke="#8ED8FF" stroke-width="5" stroke-linecap="round"/>
  <path d="M724 462H672" stroke="#89FFE1" stroke-width="5" stroke-linecap="round"/>
  <path d="M520 462H672" stroke="#FFB86C" stroke-width="5" stroke-linecap="round"/>
  <text x="84" y="118" fill="#ECF6F2" font-family="Arial, sans-serif" font-size="28" font-weight="700">Next.js UI</text>
  <text x="84" y="162" fill="#9FBAB2" font-family="Arial, sans-serif" font-size="20">Animated dashboard</text>
  <text x="84" y="194" fill="#9FBAB2" font-family="Arial, sans-serif" font-size="20">Forms + live event feed</text>
  <text x="516" y="118" fill="#ECF6F2" font-family="Arial, sans-serif" font-size="28" font-weight="700">API Layer</text>
  <text x="516" y="162" fill="#9FBAB2" font-family="Arial, sans-serif" font-size="20">REST routes + validation</text>
  <text x="516" y="194" fill="#9FBAB2" font-family="Arial, sans-serif" font-size="20">SSE streaming</text>
  <text x="944" y="124" fill="#ECF6F2" font-family="Arial, sans-serif" font-size="28" font-weight="700">Postgres</text>
  <text x="944" y="166" fill="#9FBAB2" font-family="Arial, sans-serif" font-size="20">Prisma persistence</text>
  <text x="284" y="442" fill="#ECF6F2" font-family="Arial, sans-serif" font-size="28" font-weight="700">Git Runtime</text>
  <text x="284" y="486" fill="#9FBAB2" font-family="Arial, sans-serif" font-size="20">Real branches</text>
  <text x="284" y="518" fill="#9FBAB2" font-family="Arial, sans-serif" font-size="20">Commits and merges on disk</text>
  <text x="706" y="434" fill="#ECF6F2" font-family="Arial, sans-serif" font-size="28" font-weight="700">Audit + Governance</text>
  <text x="706" y="478" fill="#9FBAB2" font-family="Arial, sans-serif" font-size="20">Events, policy, reviews</text>
  <text x="706" y="510" fill="#9FBAB2" font-family="Arial, sans-serif" font-size="20">Autonomous merge evaluation</text>
</svg>